<svg width="81" height="32" viewBox="0 0 81 32" fill="none" xmlns="http://www.w3.org/2000/svg">
<path d="M2.552 16C2.40533 16 2.288 15.956 2.2 15.868C2.112 15.78 2.068 15.6627 2.068 15.516V1.106C2.068 0.944666 2.112 0.82 2.2 0.732C2.288 0.643999 2.40533 0.599999 2.552 0.599999H11.132C11.2933 0.599999 11.418 0.643999 11.506 0.732C11.594 0.82 11.638 0.944666 11.638 1.106V1.436C11.638 1.58267 11.594 1.7 11.506 1.788C11.418 1.876 11.2933 1.92 11.132 1.92H3.454V7.53H10.648C10.8093 7.53 10.934 7.574 11.022 7.662C11.11 7.75 11.154 7.87467 11.154 8.036V8.366C11.154 8.51267 11.11 8.63 11.022 8.718C10.934 8.806 10.8093 8.85 10.648 8.85H3.454V14.68H11.308C11.4693 14.68 11.594 14.724 11.682 14.812C11.77 14.9 11.814 15.0247 11.814 15.186V15.516C11.814 15.6627 11.77 15.78 11.682 15.868C11.594 15.956 11.4693 16 11.308 16H2.552ZM14.2295 16C14.1122 16 14.0095 15.956 13.9215 15.868C13.8335 15.78 13.7895 15.6773 13.7895 15.56C13.7895 15.5013 13.7969 15.4427 13.8115 15.384C13.8409 15.3107 13.8922 15.2227 13.9655 15.12L17.8375 10.148L14.1635 5.44C14.0902 5.33733 14.0389 5.25667 14.0095 5.198C13.9949 5.12467 13.9875 5.05867 13.9875 5C13.9875 4.88267 14.0315 4.78 14.1195 4.692C14.2075 4.604 14.3102 4.56 14.4275 4.56H14.8895C15.0362 4.56 15.1462 4.59667 15.2195 4.67C15.3075 4.74333 15.3809 4.81667 15.4395 4.89L18.7395 9.136L22.0395 4.912C22.1129 4.83867 22.1862 4.76533 22.2595 4.692C22.3329 4.604 22.4429 4.56 22.5895 4.56H23.0295C23.1469 4.56 23.2495 4.604 23.3375 4.692C23.4255 4.78 23.4695 4.88267 23.4695 5C23.4695 5.05867 23.4549 5.12467 23.4255 5.198C23.4109 5.25667 23.3669 5.33733 23.2935 5.44L19.5755 10.214L23.4475 15.12C23.5209 15.2227 23.5649 15.3107 23.5795 15.384C23.6089 15.4427 23.6235 15.5013 23.6235 15.56C23.6235 15.6773 23.5795 15.78 23.4915 15.868C23.4035 15.956 23.3009 16 23.1835 16H22.7215C22.5749 16 22.4575 15.9633 22.3695 15.89C22.2962 15.8167 22.2302 15.7433 22.1715 15.67L18.6955 11.226L15.2195 15.67C15.1609 15.7433 15.0875 15.8167 14.9995 15.89C14.9262 15.9633 14.8162 16 14.6695 16H14.2295ZM26.3423 16C26.1956 16 26.0636 15.9487 25.9463 15.846C25.8289 15.7433 25.7703 15.604 25.7703 15.428V1.172C25.7703 1.01067 25.8289 0.878666 25.9463 0.775999C26.0636 0.658666 26.1956 0.599999 26.3423 0.599999H29.9283C30.0896 0.599999 30.2216 0.658666 30.3243 0.775999C30.4416 0.878666 30.5003 1.01067 30.5003 1.172V6.144H34.9883V1.172C34.9883 1.01067 35.0396 0.878666 35.1423 0.775999C35.2596 0.658666 35.3989 0.599999 35.5603 0.599999H39.1463C39.3076 0.599999 39.4396 0.658666 39.5423 0.775999C39.6596 0.878666 39.7183 1.01067 39.7183 1.172V15.428C39.7183 15.5893 39.6596 15.7287 39.5423 15.846C39.4396 15.9487 39.3076 16 39.1463 16H35.5603C35.3989 16 35.2596 15.9487 35.1423 15.846C35.0396 15.7287 34.9883 15.5893 34.9883 15.428V10.324H30.5003V15.428C30.5003 15.5893 30.4416 15.7287 30.3243 15.846C30.2216 15.9487 30.0896 16 29.9283 16H26.3423ZM41.6716 16C41.5396 16 41.4223 15.956 41.3196 15.868C41.2316 15.7653 41.1876 15.648 41.1876 15.516C41.1876 15.4573 41.2023 15.406 41.2316 15.362L46.2476 1.282C46.2916 1.12067 46.3869 0.966666 46.5336 0.819999C46.6949 0.673332 46.9076 0.599999 47.1716 0.599999H51.1976C51.4763 0.599999 51.6889 0.673332 51.8356 0.819999C51.9823 0.966666 52.0776 1.12067 52.1216 1.282L57.1596 15.362C57.1743 15.406 57.1816 15.4573 57.1816 15.516C57.1816 15.648 57.1303 15.7653 57.0276 15.868C56.9396 15.956 56.8296 16 56.6976 16H53.3096C53.0603 16 52.8769 15.9413 52.7596 15.824C52.6423 15.7067 52.5616 15.5967 52.5176 15.494L51.8356 13.646H46.5336L45.8516 15.494C45.8076 15.5967 45.7269 15.7067 45.6096 15.824C45.5069 15.9413 45.3236 16 45.0596 16H41.6716ZM47.5456 9.928H50.8236L49.1736 4.978L47.5456 9.928ZM59.2133 16C59.0667 16 58.9347 15.9487 58.8173 15.846C58.7 15.7287 58.6413 15.5893 58.6413 15.428V1.172C58.6413 1.01067 58.7 0.878666 58.8173 0.775999C58.9347 0.658666 59.0667 0.599999 59.2133 0.599999H62.9533C63.1147 0.599999 63.2467 0.658666 63.3493 0.775999C63.4667 0.878666 63.5253 1.01067 63.5253 1.172V15.428C63.5253 15.5893 63.4667 15.7287 63.3493 15.846C63.2467 15.9487 63.1147 16 62.9533 16H59.2133ZM66.8188 16C66.6721 16 66.5401 15.9487 66.4228 15.846C66.3055 15.7287 66.2468 15.5893 66.2468 15.428V1.172C66.2468 1.01067 66.3055 0.878666 66.4228 0.775999C66.5401 0.658666 66.6721 0.599999 66.8188 0.599999H73.0888C75.0835 0.599999 76.6455 1.05467 77.7748 1.964C78.9188 2.87333 79.4908 4.142 79.4908 5.77C79.4908 6.79667 79.2561 7.66933 78.7868 8.388C78.3175 9.10667 77.7015 9.67133 76.9388 10.082L79.7988 15.274C79.8428 15.362 79.8648 15.4427 79.8648 15.516C79.8648 15.648 79.8208 15.7653 79.7328 15.868C79.6448 15.956 79.5348 16 79.4028 16H75.6848C75.4061 16 75.1935 15.934 75.0468 15.802C74.9001 15.6553 74.8048 15.5233 74.7608 15.406L72.5608 10.874H70.9768V15.428C70.9768 15.5893 70.9181 15.7287 70.8008 15.846C70.6981 15.9487 70.5661 16 70.4048 16H66.8188ZM70.9768 7.244H73.0668C73.5801 7.244 73.9615 7.10467 74.2108 6.826C74.4601 6.53267 74.5848 6.17333 74.5848 5.748C74.5848 5.308 74.4601 4.934 74.2108 4.626C73.9761 4.318 73.5948 4.164 73.0668 4.164H70.9768V7.244Z" fill="white"/>
<path opacity="0.7" d="M0.528 29C0.464 29 0.408 28.976 0.36 28.928C0.312 28.88 0.288 28.824 0.288 28.76C0.288 28.72 0.296 28.676 0.312 28.628L3.348 20.84C3.38 20.76 3.42 20.7 3.468 20.66C3.524 20.62 3.6 20.6 3.696 20.6H4.104C4.2 20.6 4.272 20.62 4.32 20.66C4.376 20.7 4.42 20.76 4.452 20.84L7.488 28.628C7.504 28.676 7.512 28.72 7.512 28.76C7.512 28.824 7.488 28.88 7.44 28.928C7.392 28.976 7.336 29 7.272 29H7.032C6.952 29 6.892 28.98 6.852 28.94C6.812 28.892 6.784 28.852 6.768 28.82L6.024 26.9H1.776L1.032 28.82C1.024 28.852 0.996 28.892 0.948 28.94C0.908 28.98 0.848 29 0.768 29H0.528ZM2.064 26.18H5.736L3.9 21.452L2.064 26.18ZM11.0704 29.12C10.5104 29.12 10.0344 29.012 9.64238 28.796C9.25038 28.572 8.95038 28.252 8.74238 27.836C8.54238 27.42 8.43438 26.928 8.41838 26.36C8.41038 26.24 8.40638 26.08 8.40638 25.88C8.40638 25.68 8.41038 25.52 8.41838 25.4C8.43438 24.824 8.54238 24.332 8.74238 23.924C8.95038 23.508 9.25038 23.192 9.64238 22.976C10.0344 22.752 10.5104 22.64 11.0704 22.64C11.4944 22.64 11.8584 22.7 12.1624 22.82C12.4744 22.932 12.7304 23.084 12.9304 23.276C13.1304 23.46 13.2824 23.664 13.3864 23.888C13.4904 24.112 13.5464 24.332 13.5544 24.548C13.5624 24.628 13.5384 24.692 13.4824 24.74C13.4264 24.788 13.3624 24.812 13.2904 24.812H13.1224C13.0424 24.812 12.9824 24.796 12.9424 24.764C12.9104 24.724 12.8744 24.656 12.8344 24.56C12.6664 24.104 12.4344 23.788 12.1384 23.612C11.8504 23.428 11.4944 23.336 11.0704 23.336C10.5264 23.336 10.0744 23.504 9.71438 23.84C9.36238 24.168 9.17438 24.708 9.15038 25.46C9.13438 25.74 9.13438 26.02 9.15038 26.3C9.17438 27.052 9.36238 27.596 9.71438 27.932C10.0744 28.26 10.5264 28.424 11.0704 28.424C11.4944 28.424 11.8504 28.336 12.1384 28.16C12.4344 27.976 12.6664 27.656 12.8344 27.2C12.8744 27.104 12.9104 27.04 12.9424 27.008C12.9824 26.968 13.0424 26.948 13.1224 26.948H13.2904C13.3624 26.948 13.4264 26.972 13.4824 27.02C13.5384 27.068 13.5624 27.132 13.5544 27.212C13.5464 27.388 13.5104 27.564 13.4464 27.74C13.3824 27.916 13.2824 28.088 13.1464 28.256C13.0184 28.424 12.8584 28.572 12.6664 28.7C12.4744 28.828 12.2424 28.928 11.9704 29C11.7064 29.08 11.4064 29.12 11.0704 29.12ZM16.82 29.12C16.436 29.12 16.08 29.04 15.752 28.88C15.432 28.72 15.172 28.508 14.972 28.244C14.772 27.972 14.672 27.668 14.672 27.332C14.672 26.788 14.892 26.352 15.332 26.024C15.772 25.696 16.344 25.484 17.048 25.388L18.944 25.124V24.704C18.944 24.28 18.812 23.948 18.548 23.708C18.292 23.46 17.88 23.336 17.312 23.336C16.896 23.336 16.56 23.42 16.304 23.588C16.048 23.748 15.872 23.96 15.776 24.224C15.736 24.344 15.66 24.404 15.548 24.404H15.356C15.26 24.404 15.192 24.38 15.152 24.332C15.112 24.276 15.092 24.212 15.092 24.14C15.092 24.028 15.132 23.888 15.212 23.72C15.3 23.552 15.432 23.388 15.608 23.228C15.784 23.06 16.012 22.92 16.292 22.808C16.572 22.696 16.912 22.64 17.312 22.64C17.784 22.64 18.172 22.704 18.476 22.832C18.788 22.96 19.028 23.128 19.196 23.336C19.372 23.536 19.496 23.76 19.568 24.008C19.64 24.256 19.676 24.5 19.676 24.74V28.736C19.676 28.816 19.652 28.88 19.604 28.928C19.556 28.976 19.492 29 19.412 29H19.208C19.128 29 19.064 28.976 19.016 28.928C18.968 28.88 18.944 28.816 18.944 28.736V28.172C18.848 28.316 18.712 28.46 18.536 28.604C18.36 28.748 18.132 28.872 17.852 28.976C17.58 29.072 17.236 29.12 16.82 29.12ZM16.94 28.424C17.308 28.424 17.644 28.344 17.948 28.184C18.252 28.024 18.492 27.78 18.668 27.452C18.852 27.116 18.944 26.696 18.944 26.192V25.784L17.396 26C16.74 26.088 16.244 26.24 15.908 26.456C15.572 26.672 15.404 26.944 15.404 27.272C15.404 27.536 15.48 27.752 15.632 27.92C15.784 28.088 15.976 28.216 16.208 28.304C16.448 28.384 16.692 28.424 16.94 28.424ZM23.8296 29.12C23.3656 29.12 22.9696 29.036 22.6416 28.868C22.3216 28.7 22.0616 28.476 21.8616 28.196C21.6616 27.916 21.5136 27.604 21.4176 27.26C21.3296 26.916 21.2776 26.568 21.2616 26.216C21.2536 26.096 21.2496 25.984 21.2496 25.88C21.2496 25.776 21.2536 25.664 21.2616 25.544C21.2776 25.192 21.3296 24.844 21.4176 24.5C21.5136 24.156 21.6616 23.844 21.8616 23.564C22.0616 23.284 22.3216 23.06 22.6416 22.892C22.9696 22.724 23.3656 22.64 23.8296 22.64C24.3256 22.64 24.7336 22.732 25.0536 22.916C25.3816 23.1 25.6456 23.324 25.8456 23.588V20.744C25.8456 20.664 25.8696 20.6 25.9176 20.552C25.9656 20.504 26.0296 20.48 26.1096 20.48H26.3136C26.3936 20.48 26.4576 20.504 26.5056 20.552C26.5536 20.6 26.5776 20.664 26.5776 20.744V28.736C26.5776 28.816 26.5536 28.88 26.5056 28.928C26.4576 28.976 26.3936 29 26.3136 29H26.1096C26.0296 29 25.9656 28.976 25.9176 28.928C25.8696 28.88 25.8456 28.816 25.8456 28.736V28.172C25.6456 28.444 25.3816 28.672 25.0536 28.856C24.7336 29.032 24.3256 29.12 23.8296 29.12ZM23.9016 28.424C24.3576 28.424 24.7256 28.316 25.0056 28.1C25.2856 27.884 25.4936 27.616 25.6296 27.296C25.7656 26.968 25.8376 26.64 25.8456 26.312C25.8536 26.192 25.8576 26.036 25.8576 25.844C25.8576 25.652 25.8536 25.496 25.8456 25.376C25.8376 25.056 25.7616 24.74 25.6176 24.428C25.4816 24.116 25.2736 23.856 24.9936 23.648C24.7136 23.44 24.3496 23.336 23.9016 23.336C23.4376 23.336 23.0656 23.44 22.7856 23.648C22.5136 23.856 22.3176 24.128 22.1976 24.464C22.0776 24.8 22.0096 25.16 21.9936 25.544C21.9856 25.768 21.9856 25.992 21.9936 26.216C22.0096 26.6 22.0776 26.96 22.1976 27.296C22.3176 27.632 22.5136 27.904 22.7856 28.112C23.0656 28.32 23.4376 28.424 23.9016 28.424ZM30.8505 29.12C30.0745 29.12 29.4585 28.868 29.0025 28.364C28.5465 27.852 28.2865 27.184 28.2225 26.36C28.2145 26.24 28.2105 26.08 28.2105 25.88C28.2105 25.68 28.2145 25.52 28.2225 25.4C28.2625 24.856 28.3905 24.376 28.6065 23.96C28.8225 23.544 29.1185 23.22 29.4945 22.988C29.8785 22.756 30.3305 22.64 30.8505 22.64C31.4105 22.64 31.8865 22.764 32.2785 23.012C32.6705 23.26 32.9705 23.616 33.1785 24.08C33.3945 24.544 33.5025 25.096 33.5025 25.736V25.916C33.5025 25.996 33.4745 26.06 33.4185 26.108C33.3705 26.156 33.3065 26.18 33.2265 26.18H28.9545C28.9545 26.18 28.9545 26.196 28.9545 26.228C28.9545 26.26 28.9545 26.284 28.9545 26.3C28.9705 26.66 29.0545 27.004 29.2065 27.332C29.3585 27.652 29.5745 27.916 29.8545 28.124C30.1345 28.324 30.4665 28.424 30.8505 28.424C31.1945 28.424 31.4785 28.372 31.7025 28.268C31.9345 28.164 32.1185 28.052 32.2545 27.932C32.3905 27.804 32.4785 27.708 32.5185 27.644C32.5905 27.54 32.6465 27.48 32.6865 27.464C32.7265 27.44 32.7905 27.428 32.8785 27.428H33.0705C33.1425 27.428 33.2025 27.452 33.2505 27.5C33.3065 27.54 33.3305 27.596 33.3225 27.668C33.3145 27.78 33.2505 27.92 33.1305 28.088C33.0185 28.248 32.8545 28.408 32.6385 28.568C32.4305 28.728 32.1745 28.86 31.8705 28.964C31.5665 29.068 31.2265 29.12 30.8505 29.12ZM28.9545 25.508H32.7705V25.46C32.7705 25.06 32.6945 24.7 32.5425 24.38C32.3905 24.06 32.1705 23.808 31.8825 23.624C31.5945 23.432 31.2505 23.336 30.8505 23.336C30.4505 23.336 30.1065 23.432 29.8185 23.624C29.5385 23.808 29.3225 24.06 29.1705 24.38C29.0265 24.7 28.9545 25.06 28.9545 25.46V25.508ZM35.3493 29C35.2693 29 35.2053 28.976 35.1573 28.928C35.1093 28.88 35.0853 28.816 35.0853 28.736V23.024C35.0853 22.944 35.1093 22.88 35.1573 22.832C35.2053 22.784 35.2693 22.76 35.3493 22.76H35.5533C35.6333 22.76 35.6973 22.784 35.7453 22.832C35.7933 22.88 35.8173 22.944 35.8173 23.024V23.444C36.0173 23.188 36.2533 22.992 36.5253 22.856C36.8053 22.712 37.1413 22.64 37.5333 22.64C38.4293 22.64 39.0693 23.016 39.4533 23.768C39.6373 23.424 39.9053 23.152 40.2573 22.952C40.6173 22.744 41.0293 22.64 41.4933 22.64C41.9173 22.64 42.2973 22.74 42.6333 22.94C42.9773 23.132 43.2453 23.42 43.4373 23.804C43.6373 24.188 43.7373 24.668 43.7373 25.244V28.736C43.7373 28.816 43.7133 28.88 43.6653 28.928C43.6173 28.976 43.5533 29 43.4733 29H43.2693C43.1893 29 43.1253 28.976 43.0773 28.928C43.0293 28.88 43.0053 28.816 43.0053 28.736V25.364C43.0053 24.836 42.9293 24.428 42.7773 24.14C42.6253 23.844 42.4253 23.636 42.1773 23.516C41.9293 23.396 41.6613 23.336 41.3733 23.336C41.1333 23.336 40.8893 23.396 40.6413 23.516C40.3933 23.636 40.1853 23.844 40.0173 24.14C39.8573 24.428 39.7773 24.836 39.7773 25.364V28.736C39.7773 28.816 39.7533 28.88 39.7053 28.928C39.6573 28.976 39.5933 29 39.5133 29H39.3093C39.2293 29 39.1653 28.976 39.1173 28.928C39.0693 28.88 39.0453 28.816 39.0453 28.736V25.364C39.0453 24.836 38.9653 24.428 38.8053 24.14C38.6453 23.844 38.4413 23.636 38.1933 23.516C37.9453 23.396 37.6853 23.336 37.4133 23.336C37.1733 23.336 36.9293 23.396 36.6813 23.516C36.4333 23.636 36.2253 23.844 36.0573 24.14C35.8973 24.428 35.8173 24.832 35.8173 25.352V28.736C35.8173 28.816 35.7933 28.88 35.7453 28.928C35.6973 28.976 35.6333 29 35.5533 29H35.3493ZM46.5007 31.28C46.4367 31.28 46.3807 31.256 46.3327 31.208C46.2847 31.16 46.2607 31.104 46.2607 31.04C46.2607 31.008 46.2647 30.972 46.2727 30.932C46.2887 30.9 46.3087 30.856 46.3327 30.8L47.2567 28.64L44.9647 23.24C44.9167 23.12 44.8927 23.04 44.8927 23C44.8927 22.936 44.9167 22.88 44.9647 22.832C45.0127 22.784 45.0687 22.76 45.1327 22.76H45.3847C45.4647 22.76 45.5247 22.78 45.5647 22.82C45.6127 22.852 45.6447 22.892 45.6607 22.94L47.6767 27.692L49.7407 22.94C49.7647 22.892 49.7967 22.852 49.8367 22.82C49.8767 22.78 49.9367 22.76 50.0167 22.76H50.2567C50.3207 22.76 50.3767 22.784 50.4247 22.832C50.4727 22.88 50.4967 22.936 50.4967 23C50.4967 23.04 50.4727 23.12 50.4247 23.24L47.0167 31.1C46.9927 31.148 46.9607 31.188 46.9207 31.22C46.8807 31.26 46.8207 31.28 46.7407 31.28H46.5007Z" fill="white"/>
</svg>
